<svg width="156" height="167" viewBox="0 0 156 167" fill="none" xmlns="http://www.w3.org/2000/svg">
<rect width="156" height="167" fill="#1E1E1E"/>
<path d="M27.7434 11.5C27.7434 5.14872 32.8922 0 39.2434 0C45.5947 0 50.7434 5.14873 50.7434 11.5V140C38.0409 140 27.7434 129.703 27.7434 117V11.5Z" fill="#D9D9D9"/>
<path d="M66.7434 81.5C66.7434 75.1487 71.8922 70 78.2434 70V70C84.5947 70 89.7434 75.1487 89.7434 81.5V128.5C89.7434 134.851 84.5947 140 78.2434 140V140C71.8922 140 66.7434 134.851 66.7434 128.5V81.5Z" fill="#D9D9D9"/>
<path d="M105.743 11.5C105.743 5.14872 110.892 0 117.243 0C123.595 0 128.743 5.14873 128.743 11.5V117C128.743 129.703 118.446 140 105.743 140V11.5Z" fill="#D9D9D9"/>
<path d="M6.38174 89C6.38174 128.412 38.3315 160.362 77.7434 160.362C117.155 160.362 149.105 128.412 149.105 89C152.771 89 155.773 91.9824 155.465 95.6357C152.098 135.608 118.587 167 77.7434 167C36.9003 167 3.38921 135.608 0.0217381 95.6357C-0.286034 91.9824 2.71551 89 6.38174 89Z" fill="white"/>
</svg>
